<svg width="900" height="180" viewBox="0 0 900 180" xmlns="http://www.w3.org/2000/svg">
  <rect width="900" height="180" fill="#fdf6ee"/>

  <!-- Grid lines vertical -->
  <line x1="60"  y1="0" x2="60"  y2="180" stroke="#c8a882" stroke-width="0.7" opacity="0.32"/>
  <line x1="120" y1="0" x2="120" y2="180" stroke="#c8a882" stroke-width="0.7" opacity="0.32"/>
  <line x1="180" y1="0" x2="180" y2="180" stroke="#c8a882" stroke-width="0.7" opacity="0.32"/>
  <line x1="240" y1="0" x2="240" y2="180" stroke="#c8a882" stroke-width="0.7" opacity="0.32"/>
  <line x1="300" y1="0" x2="300" y2="180" stroke="#c8a882" stroke-width="0.7" opacity="0.32"/>
  <line x1="360" y1="0" x2="360" y2="180" stroke="#c8a882" stroke-width="0.7" opacity="0.32"/>
  <line x1="420" y1="0" x2="420" y2="180" stroke="#c8a882" stroke-width="0.7" opacity="0.32"/>
  <line x1="480" y1="0" x2="480" y2="180" stroke="#c8a882" stroke-width="0.7" opacity="0.32"/>
  <line x1="540" y1="0" x2="540" y2="180" stroke="#c8a882" stroke-width="0.7" opacity="0.32"/>
  <line x1="600" y1="0" x2="600" y2="180" stroke="#c8a882" stroke-width="0.7" opacity="0.32"/>
  <line x1="660" y1="0" x2="660" y2="180" stroke="#c8a882" stroke-width="0.7" opacity="0.32"/>
  <line x1="720" y1="0" x2="720" y2="180" stroke="#c8a882" stroke-width="0.7" opacity="0.32"/>
  <line x1="780" y1="0" x2="780" y2="180" stroke="#c8a882" stroke-width="0.7" opacity="0.32"/>
  <line x1="840" y1="0" x2="840" y2="180" stroke="#c8a882" stroke-width="0.7" opacity="0.32"/>

  <!-- Grid lines horizontal -->
  <line x1="0" y1="45"  x2="900" y2="45"  stroke="#c8a882" stroke-width="0.7" opacity="0.32"/>
  <line x1="0" y1="90"  x2="900" y2="90"  stroke="#c8a882" stroke-width="0.7" opacity="0.32"/>
  <line x1="0" y1="135" x2="900" y2="135" stroke="#c8a882" stroke-width="0.7" opacity="0.32"/>

  <!-- Crosses at grid intersections — varying opacity for visual rhythm -->
  <g stroke="#b5854a" stroke-width="1.6" stroke-linecap="round" opacity="0.55">
    <line x1="54"  y1="39"  x2="66"  y2="51"/> <line x1="66"  y1="39"  x2="54"  y2="51"/>
  </g>
  <g stroke="#b5854a" stroke-width="1.6" stroke-linecap="round" opacity="0.22">
    <line x1="354" y1="39"  x2="366" y2="51"/> <line x1="366" y1="39"  x2="354" y2="51"/>
  </g>
  <g stroke="#b5854a" stroke-width="1.6" stroke-linecap="round" opacity="0.55">
    <line x1="654" y1="39"  x2="666" y2="51"/> <line x1="666" y1="39"  x2="654" y2="51"/>
  </g>
  <g stroke="#b5854a" stroke-width="1.6" stroke-linecap="round" opacity="0.32">
    <line x1="834" y1="39"  x2="846" y2="51"/> <line x1="846" y1="39"  x2="834" y2="51"/>
  </g>
  <g stroke="#b5854a" stroke-width="1.6" stroke-linecap="round" opacity="0.18">
    <line x1="114" y1="84"  x2="126" y2="96"/> <line x1="126" y1="84"  x2="114" y2="96"/>
  </g>
  <g stroke="#b5854a" stroke-width="1.6" stroke-linecap="round" opacity="0.55">
    <line x1="774" y1="84"  x2="786" y2="96"/> <line x1="786" y1="84"  x2="774" y2="96"/>
  </g>
  <g stroke="#b5854a" stroke-width="1.6" stroke-linecap="round" opacity="0.38">
    <line x1="54"  y1="129" x2="66"  y2="141"/> <line x1="66"  y1="129" x2="54"  y2="141"/>
  </g>
  <g stroke="#b5854a" stroke-width="1.6" stroke-linecap="round" opacity="0.22">
    <line x1="474" y1="129" x2="486" y2="141"/> <line x1="486" y1="129" x2="474" y2="141"/>
  </g>
  <g stroke="#b5854a" stroke-width="1.6" stroke-linecap="round" opacity="0.55">
    <line x1="834" y1="129" x2="846" y2="141"/> <line x1="846" y1="129" x2="834" y2="141"/>
  </g>
  <g stroke="#b5854a" stroke-width="1.6" stroke-linecap="round" opacity="0.32">
    <line x1="234" y1="39"  x2="246" y2="51"/> <line x1="246" y1="39"  x2="234" y2="51"/>
  </g>

  <!-- Dots at other intersections -->
  <circle cx="180" cy="45"  r="2.8" fill="#b5854a" opacity="0.45"/>
  <circle cx="420" cy="45"  r="2.2" fill="#b5854a" opacity="0.25"/>
  <circle cx="720" cy="45"  r="2.8" fill="#b5854a" opacity="0.45"/>
  <circle cx="300" cy="90"  r="2.5" fill="#b5854a" opacity="0.30"/>
  <circle cx="600" cy="90"  r="2.2" fill="#b5854a" opacity="0.20"/>
  <circle cx="180" cy="135" r="2.8" fill="#b5854a" opacity="0.50"/>
  <circle cx="360" cy="135" r="2.2" fill="#b5854a" opacity="0.28"/>
  <circle cx="660" cy="135" r="2.8" fill="#b5854a" opacity="0.42"/>
  <circle cx="840" cy="90"  r="2.4" fill="#b5854a" opacity="0.32"/>

  <!-- Name -->
  <text x="450" y="96" font-family="Georgia, serif" font-size="48" font-weight="700"
        fill="#3d2b1f" text-anchor="middle" dominant-baseline="central" letter-spacing="1">Muhammad Faizan</text>

  <!-- Subtitle -->
  <text x="450" y="136" font-family="Georgia, serif" font-size="14.5" fill="#7a5c3e"
        text-anchor="middle" dominant-baseline="central" letter-spacing="1.5">Software Engineer &#xB7; AI Systems &#xB7; Full-Stack &#xB7; DevOps &#xB7; Mobile</text>

  <!-- Thin rule under subtitle -->
  <line x1="240" y1="153" x2="660" y2="153" stroke="#b5854a" stroke-width="0.8" opacity="0.38"/>
</svg>